<svg xmlns="http://www.w3.org/2000/svg" xmlns:xlink="http://www.w3.org/1999/xlink" width="500" height="500" viewBox="0 0 500 500" fill="none">
<path d="M440.053 263.269C451.109 370.664 371.751 420.812 250.443 419.329C129.136 417.845 47.0589 370.408 60.4235 259.329C62.2812 243.889 64.9573 229.771 68.5035 216.899C54.1047 153.921 62.9837 94.5855 92.5235 82.2987C109.967 76.9369 123.118 81.9442 139.793 87.2287C153.959 92.751 170.272 101.176 188.954 112.799C204.958 103.809 246.462 103.299 252.973 103.299C259.485 103.299 293.952 103.799 311.953 112.789C356.701 83.8994 388.034 75.788 409.613 83.3987C438.245 93.4999 445.814 162.511 431.534 217.959C435.534 231.691 438.356 246.781 440.053 263.269Z"   fill="#000000" >
</path>
<path d="M429.16 260.008C439.46 357.65 376.384 406.66 254.2 408.648C139.258 411.048 55.9639 366.472 70.6999 260.008C73.2511 241.576 74.7469 233.83 79.1699 221.128C64.7519 159.108 71.671 99.1001 96.7799 92.178C115.455 90.308 123.548 94.4218 138.7 99.158C150.74 103.852 170.631 113.798 186.51 123.678C200.114 116.036 244.165 113.158 249.7 113.158C255.235 113.158 299.398 116.036 314.7 123.678C348.861 100.531 380.915 85.8458 405.35 92.178C443.257 107.867 421.704 223.253 418.67 221.128C420.623 215.478 430.189 256.922 429.16 260.008Z"   fill="#FFFFFF" >
</path>
<path d="M148.446 143.584C152.807 140.48 119.969 119.568 108.446 123.094C96.9231 126.62 93.807 153.557 97.4558 186.596C101.927 188.628 151.291 148.149 148.446 143.584ZM351.377 143.723C347.017 140.618 379.855 119.706 391.377 123.232C402.9 126.758 406.016 153.695 402.368 186.734C397.896 188.766 348.533 148.288 351.377 143.723Z" fill-rule="evenodd"  fill="#642611" >
</path>
<path d="M430.034 263.729C432.255 274.918 428.978 306.845 426.014 314.698C403.967 303.134 370.227 308.136 352.164 325.268C318.993 359.963 301.05 319.006 250.214 318.758C199.378 318.511 192.351 359.7 157.164 325.268C143.184 311.944 76.9593 331.914 72.5437 314.739C68.8632 301.947 68.5447 282.914 69.5437 268.739C73.8436 232.874 79.0437 221.738 79.0437 221.738C79.0437 207.768 117.219 139.753 185.554 124.239C201.031 115.49 223.303 113.339 250.214 112.799C277.125 112.258 304.173 116.301 314.674 124.239C356.755 132.888 401.593 170.638 420.484 215.988C425.818 230.29 430.467 259.16 430.034 263.729Z"   fill="#F5812E" >
</path>
<path d="M151.547 328.69C154.794 310.336 154.131 294.69 121.547 294.69C103.288 294.69 67.6664 296.807 72.0265 312.69C73.4809 319.048 81.7135 339.966 79.5465 333.69C88.7043 359.157 132.575 392.662 148.047 391.19C164.272 384.873 159.644 368.3 155.206 352.41C152.772 343.697 150.396 335.19 151.547 328.69ZM347.518 328.69C344.271 310.336 344.934 294.69 377.518 294.69C395.777 294.69 431.399 296.807 427.038 312.69C425.584 319.048 417.351 339.966 419.518 333.69C410.361 359.157 366.49 392.662 351.018 391.19C334.793 384.873 339.421 368.3 343.859 352.41C346.292 343.697 348.669 335.19 347.518 328.69Z" fill-rule="evenodd"  fill="#FFFFFF" >
</path>
<path d="M153.292 396.499C230.933 422.623 251.844 399.289 195.694 364.079C153.199 337.431 168.018 322.501 177.203 313.249C180.154 310.275 182.523 307.888 182.222 305.887C181.75 302.754 182.645 300.832 183.293 299.441C184.636 296.561 184.919 295.954 169.82 291.567C147.426 285.061 125.46 316.209 120.899 335.968C116.339 355.726 120.581 373.582 127.255 384.182C136.655 390.207 144.909 392.432 153.292 396.499ZM343.985 395.483C267.263 421.445 246.543 398.077 301.997 362.99C344.134 336.328 331.296 322.333 323.231 313.541C320.683 310.762 318.611 308.503 318.901 306.529C319.362 303.397 318.472 301.475 317.828 300.083C316.495 297.201 316.214 296.593 331.136 292.238C353.266 285.779 375.045 316.96 379.593 336.72C384.141 356.481 379.576 372.414 372.997 382.997C365.071 388.917 354.241 391.599 343.985 395.483Z" fill-rule="evenodd"  fill="#8F4E30" >
</path>
<path     fill="#FFFFFF"  d="M250.15 274C313.535 276.642 334.663 314.776 335.15 344.05C335.637 373.324 321.902 400.142 303.12 405.5C303.12 405.5 297.473 407.051 290.62 408C290.348 408.438 285.583 408.88 279.391 409.251C270.878 409.846 260.258 410.177 254.193 410.165C251.309 410.189 249.521 410.14 249.63 410C248.475 410.348 210.055 409.765 207.98 407.83C204.079 406.997 200.871 405.365 197.25 403.99C159.873 389.795 164.15 344.05 164.15 344.05C162.272 325.704 181.976 277.126 250.15 274Z">
</path>
<path d="M169 306C182.807 306 194 293.016 194 277C194 260.984 182.807 248 169 248C155.193 248 144 260.984 144 277C144 293.016 155.193 306 169 306ZM332 306C345.807 306 357 293.016 357 277C357 260.984 345.807 248 332 248C318.193 248 307 260.984 307 277C307 293.016 318.193 306 332 306Z" fill-rule="evenodd"  fill="#000000" >
</path>
<circle cx="161.21337890625" cy="261.1949462890625" transform="rotate(11.999999380000416 154.71337890625 254.6949462890625)" r="6.5"   fill="#FFFFFF" >
</circle>
<circle cx="324.21337890625" cy="261.1949462890625" transform="rotate(11.999999380000416 317.71337890625 254.6949462890625)" r="6.5"   fill="#FFFFFF" >
</circle>
<path d="M175.5 240C186.27 240 195 233.732 195 226C195 218.268 186.27 212 175.5 212C164.73 212 156 218.268 156 226C156 233.732 164.73 240 175.5 240ZM322.5 240C333.27 240 342 233.732 342 226C342 218.268 333.27 212 322.5 212C311.73 212 303 218.268 303 226C303 233.732 311.73 240 322.5 240Z" fill-rule="evenodd"  fill="#FEFEFE" >
</path>
<path     fill="#000000"  d="M280.197 310C276.872 318.586 259.186 326.962 250.187 327C241.188 327.038 221.011 315.805 219.197 310C217.384 304.195 217.442 300.806 220.687 298C225.596 293.756 241.21 293 250.187 293C259.328 293 275.312 293.624 280.197 298C283.281 300.763 283.523 301.414 280.197 310Z">
</path>
<path d="M243 324L257 324L257 342L243 342L243 324Z"   fill="#000000" >
</path>
<path d="M195.223 334.568C193.811 338.199 193.618 342.055 194.664 345.762C195.71 349.468 197.959 352.899 201.192 355.721C204.425 358.542 208.533 360.658 213.115 361.863C217.698 363.068 222.599 363.32 227.343 362.596C232.086 361.871 236.51 360.195 240.185 357.729C243.859 355.263 246.659 352.092 248.311 348.524C249.964 344.957 250.414 341.114 249.616 337.369C248.818 333.624 246.801 330.106 243.76 327.155L231.139 335.185C232.416 336.424 233.264 337.902 233.599 339.475C233.934 341.048 233.745 342.662 233.051 344.16C232.357 345.659 231.181 346.991 229.638 348.026C228.094 349.062 226.236 349.766 224.244 350.07C222.252 350.375 220.193 350.268 218.268 349.763C216.344 349.257 214.619 348.368 213.261 347.183C211.903 345.998 210.958 344.557 210.519 343C210.079 341.443 210.16 339.823 210.754 338.298L195.223 334.568Z"   fill="#000000" >
</path>
<path d="M304.915 334.936C306.242 338.57 306.354 342.411 305.241 346.089C304.128 349.767 301.827 353.158 298.561 355.934C295.295 358.71 291.174 360.778 286.594 361.938C282.015 363.098 277.133 363.312 272.418 362.558C267.703 361.805 263.315 360.109 259.676 357.635C256.038 355.161 253.273 351.992 251.647 348.434C250.021 344.876 249.59 341.049 250.394 337.322C251.199 333.594 253.212 330.093 256.24 327.155L268.861 335.185C267.589 336.419 266.743 337.89 266.406 339.455C266.068 341.021 266.249 342.628 266.932 344.122C267.615 345.617 268.776 346.948 270.304 347.987C271.832 349.026 273.675 349.738 275.655 350.055C277.636 350.371 279.686 350.281 281.61 349.794C283.533 349.307 285.264 348.438 286.636 347.272C288.007 346.106 288.974 344.682 289.441 343.137C289.909 341.593 289.861 339.979 289.304 338.453L304.915 334.936Z"   fill="#000000" >
</path>
<rect x="229" y="325" width="14" height="12"   fill="#FFFFFF" >
</rect>
<rect transform="matrix(-1, 0, 0, 1, 271, 325)" x="0" y="0" width="14" height="12"   fill="#FFFFFF" >
</rect>
<path d="M243.011 336.357L224.128 336.027L205.246 335.698C205.214 337.536 205.67 339.365 206.59 341.08C207.509 342.795 208.873 344.362 210.604 345.692C212.334 347.023 214.398 348.09 216.677 348.834C218.955 349.577 221.404 349.982 223.884 350.025C226.364 350.069 228.826 349.749 231.129 349.086C233.432 348.422 235.532 347.428 237.308 346.159C239.084 344.889 240.502 343.37 241.48 341.689C242.459 340.007 242.979 338.195 243.011 336.357Z"   fill="#FFFFFF" >
</path>
<path d="M194.932 335.376L200.126 336.48L205.3 337.58C205.423 337.002 205.414 336.403 205.267 335.813C205.12 335.224 204.84 334.655 204.446 334.144C204.051 333.632 203.549 333.183 202.967 332.829C202.385 332.474 201.742 332.223 201.061 332.078C200.38 331.934 199.672 331.897 198.996 331.984C198.32 332.072 197.678 332.278 197.11 332.584C196.541 332.891 196.055 333.297 195.681 333.776C195.307 334.254 195.054 334.798 194.932 335.376Z"   fill="#000000" >
</path>
<path d="M256.989 336.357L275.871 336.027L294.754 335.698C294.786 337.536 294.33 339.365 293.41 341.08C292.491 342.795 291.127 344.362 289.396 345.692C287.666 347.023 285.602 348.09 283.323 348.834C281.045 349.577 278.596 349.982 276.116 350.025C273.636 350.069 271.174 349.749 268.871 349.086C266.568 348.422 264.468 347.428 262.692 346.159C260.916 344.889 259.498 343.37 258.52 341.689C257.541 340.007 257.021 338.195 256.989 336.357Z"   fill="#FFFFFF" >
</path>
<path d="M305.048 335.402L299.854 336.506L294.68 337.606C294.557 337.027 294.566 336.428 294.713 335.839C294.86 335.249 295.14 334.68 295.534 334.169C295.929 333.658 296.431 333.209 297.013 332.854C297.595 332.499 298.238 332.249 298.919 332.104C299.6 331.959 300.308 331.922 300.984 332.01C301.66 332.098 302.302 332.303 302.87 332.61C303.439 332.916 303.925 333.323 304.299 333.801C304.673 334.28 304.926 334.824 305.048 335.402Z"   fill="#000000" >
</path>
</svg>
