<?xml version="1.0" encoding="UTF-8" standalone="no"?>
<!-- Created with Inkscape (http://www.inkscape.org/) -->

<svg
        version="1.1"
        id="svg1"
        width="438.0625"
        height="438.7793"
        viewBox="0 0 438.0625 438.7793"
        sodipodi:docname="1.svg"
        inkscape:export-filename="1.svg"
        inkscape:export-xdpi="96"
        inkscape:export-ydpi="96"
        xmlns:inkscape="http://www.inkscape.org/namespaces/inkscape"
        xmlns:sodipodi="http://sodipodi.sourceforge.net/DTD/sodipodi-0.dtd"
        xmlns="http://www.w3.org/2000/svg"
>
    <defs
            id="defs1"/>
    <sodipodi:namedview
            id="namedview1"
            pagecolor="#ffffff"
            bordercolor="#000000"
            borderopacity="0.25"
            inkscape:showpageshadow="2"
            inkscape:pageopacity="0.0"
            inkscape:pagecheckerboard="0"
            inkscape:deskcolor="#d1d1d1"/>
    <g
            inkscape:groupmode="layer"
            inkscape:label="Image"
            id="g1"
            transform="translate(-166.08984,-74.375)">
        <path
                id="path1"
                style="display:inline;fill:#efefef;stroke-width:1.0699"
                d="m 166.08984,74.375 v 438.7793 h 438.0625 V 74.375 Z m 192.84571,3.132812 c 7.3107,-0.153842 23.05894,1.054901 32.06445,2.740235 32.11315,6.009821 67.53341,23.784453 94.5293,47.439453 9.75122,8.54445 28.55785,29.65798 36.75976,41.26758 26.06178,36.88964 42.13004,84.79605 44.34375,132.21289 1.40963,30.1937 -5.16895,65.12536 -17.74219,94.21094 -4.37171,10.1131 -5.34242,13.27262 -4.39843,14.32617 0.66619,0.7435 7.38334,7.01999 14.92773,13.94531 39.64907,36.39575 41.57598,38.59688 43.70508,49.96094 3.72095,19.86056 -9.78489,38.75195 -27.70313,38.75195 -7.91397,0 -14.0614,-3.754 -29.50195,-18.01367 -8.01914,-7.40583 -20.30255,-18.75412 -27.29492,-25.21875 l -12.71289,-11.75586 -9.04688,7.41016 c -33.60563,27.51873 -80.2268,40.52303 -123.36523,34.41211 -15.39327,-2.18059 -20.45307,-3.367 -34.5,-8.0918 -17.20239,-5.78626 -28.55266,-11.1847 -42.5,-20.21485 -10.27049,-6.64957 -25.8062,-18.59131 -32.63867,-25.08789 -2.55133,-2.42589 -5.02633,-4.39698 -5.5,-4.38085 -0.47367,0.016 -1.98633,1.75362 -3.36133,3.86132 -1.375,2.10768 -7.96333,11.49537 -14.64063,20.86133 -26.07392,36.57277 -28.61717,39.78461 -33.83984,42.74609 -10.2506,5.81254 -23.08189,3.55588 -31.22852,-5.49414 -11.16659,-12.40481 -10.92789,-32.96995 0.52149,-44.99609 22.06026,-23.17156 29.95636,-31.53566 38.20508,-40.46875 5.23434,-5.66868 12.6594,-13.61298 16.5,-17.65234 3.84054,-4.03927 11.12468,-11.89527 16.1875,-17.45703 10.94113,-12.01943 12.94872,-12.63053 19.07422,-5.81836 22.22485,24.71647 39.15025,38.21883 60.2207,48.04492 32.77346,15.28359 70.05112,15.45934 101.67578,0.48047 7.45195,-3.52962 19.3025,-11.04872 23.11914,-14.67188 l 2.19922,-2.08789 -12.74609,-11.62695 c -7.01101,-6.39404 -19.94811,-18.17816 -28.74805,-26.1875 -8.79994,-8.00942 -17.60333,-16.16918 -19.5625,-18.13477 -1.95918,-1.96561 -7.3449,-6.92336 -11.96875,-11.01562 -11.41441,-10.10214 -27.26167,-24.65624 -40.24219,-36.95899 -8.74054,-8.28419 -11.04066,-9.95426 -12.19726,-8.85547 -1.26267,1.19953 -4.11105,5.37372 -19.87891,29.13672 -7.17851,10.81842 -10.56381,11.19453 -20.8125,2.30664 -17.38229,-15.07428 -33.82235,-31.07703 -34.90039,-33.9707 -1.86741,-5.01251 -0.34321,-8.65839 9.45898,-22.62891 11.17512,-15.92728 46.87057,-67.32688 51.49805,-74.15429 4.87622,-7.19433 7.35753,-8.26367 19.15234,-8.26367 7.48815,0 10.83977,-0.47639 12.79883,-1.81836 1.45986,-0.99999 6.47203,-7.2594 11.13867,-13.90821 11.13728,-15.86807 15.64432,-18.1872 23.53321,-12.11523 8.0956,6.23114 21.48934,20.03577 22.08789,22.76562 1.25153,5.70797 0.46172,7.04545 -25.85547,43.77735 -5.91245,8.25223 -10.75,15.48944 -10.75,16.08398 0,1.35298 123.6802,115.64736 125.23633,115.73242 1.15656,0.0632 6.67029,-13.12579 10.34375,-24.74218 5.23565,-16.55666 7.56375,-31.58575 8.15429,-52.62305 1.46895,-52.33138 -11.34909,-94.50378 -39.77734,-130.875 C 446.25739,121.65129 415.31868,101.21638 378.11914,90.695312 370.49533,88.539087 363.18744,86.14114 361.87891,85.367188 358.77376,83.53067 355,79.571157 355,78.148438 c 0,-0.386748 1.49863,-0.589345 3.93555,-0.640626 z"/>
    </g>
</svg>
